<?xml version="1.0" encoding="UTF-8" standalone="no"?>
<svg
   xmlns:dc="http://purl.org/dc/elements/1.1/"
   xmlns:cc="http://creativecommons.org/ns#"
   xmlns:rdf="http://www.w3.org/1999/02/22-rdf-syntax-ns#"
   xmlns:svg="http://www.w3.org/2000/svg"
   xmlns="http://www.w3.org/2000/svg"
   xmlns:sodipodi="http://sodipodi.sourceforge.net/DTD/sodipodi-0.dtd"
   xmlns:inkscape="http://www.inkscape.org/namespaces/inkscape"
   version="1.1"
   width="273.37698"
   height="315.66855"
   id="svg29"
   sodipodi:docname="logo.svg"
   inkscape:version="1.0.1 (3bc2e813f5, 2020-09-07)">
  <metadata
     id="metadata35">
    <rdf:RDF>
      <cc:Work
         rdf:about="">
        <dc:format>image/svg+xml</dc:format>
        <dc:type
           rdf:resource="http://purl.org/dc/dcmitype/StillImage" />
        <dc:title />
      </cc:Work>
    </rdf:RDF>
  </metadata>
  <defs
     id="defs33" />
  <sodipodi:namedview
     pagecolor="#ffffff"
     bordercolor="#666666"
     borderopacity="1"
     objecttolerance="10"
     gridtolerance="10"
     guidetolerance="10"
     inkscape:pageopacity="1"
     inkscape:pageshadow="2"
     inkscape:window-width="1920"
     inkscape:window-height="1000"
     id="namedview31"
     showgrid="false"
     inkscape:zoom="1.4672466"
     inkscape:cx="144.16934"
     inkscape:cy="146.34103"
     inkscape:window-x="-11"
     inkscape:window-y="-11"
     inkscape:window-maximized="1"
     inkscape:current-layer="svg29"
     inkscape:document-rotation="0"
     fit-margin-top="0"
     fit-margin-left="0"
     fit-margin-right="0"
     fit-margin-bottom="0" />
  <path
     sodipodi:type="star"
     style="fill:#ffffff;stroke:#000000;stroke-width:1;stroke-miterlimit:10;stroke-dasharray:none;stroke-opacity:1"
     id="path37"
     sodipodi:sides="6"
     sodipodi:cx="136.6885"
     sodipodi:cy="157.83428"
     sodipodi:r1="157.25693"
     sodipodi:r2="136.18851"
     sodipodi:arg1="2.6179939"
     sodipodi:arg2="3.1415927"
     inkscape:flatsided="true"
     inkscape:rounded="0"
     inkscape:randomized="0"
     d="M 0.50001122,236.46274 0.50001468,79.205808 136.68851,0.5773468 272.877,79.205814 l 0,157.256926 -136.1885,78.62846 z" />
  <g
     fill-opacity="9.99899e-05"
     fill="#ffffff"
     stroke="#3eadad"
     stroke-width="2.54401"
     id="g16"
     style="font-family:none;mix-blend-mode:normal;fill-rule:nonzero;stroke-linecap:butt;stroke-linejoin:miter;stroke-miterlimit:10;stroke-dasharray:none;stroke-dashoffset:0"
     transform="translate(-59.311519,-40.599469)">
    <g
       id="g14">
      <g
         id="g12">
        <g
           id="g10">
          <g
             id="symbol">
            <g
               id="g7">
              <g
                 id="g5">
                <g
                   id="g3">
                  <path
                     d="m 308.4387,190.54667 1.07684,14.35144 -5.62913,4.65797 -8.7172,-7.22198 -11.7424,-16.37722 -16.05849,-20.58092 -20.92828,-19.1922 -26.42008,-11.18185 -24.27544,-5.45697 -27.14079,0.49997 -28.60926,10.10297 -24.62583,19.37288 -18.19958,29.78013 -6.68461,34.08839 4.02816,31.91928 12.69259,28.17394 23.79918,23.41091 26.94104,11.54263 26.15679,1.56394 25.0833,-5.3938 20.64257,-13.61598 15.74273,-18.91619 10.58677,-26.77301 0.18545,-28.87453 -10.5973,-27.44466 -17.38474,-17.73967 -24.65606,-8.91828 -25.74466,0.064 -22.87749,8.33115 -18.72438,16.80041 -9.30326,23.38976 -0.82559,23.5756 7.06451,24.36827 17.30632,17.79834 21.04862,7.42561 19.71746,-0.81532 21.43863,-11.55058 13.93087,-19.40304 2.35527,-22.0826 -6.5038,-21.17731 -15.32118,-14.50911 -17.10449,-5.29504 -15.38727,2.37184 -13.03036,9.58686 -8.41276,14.78489 -8.7e-4,17.00057 7.80512,17.22547 14.64969,9.38215 14.90422,-0.19857 13.24522,-6.74915 7.50032,-13.7999 0.008,-16.05389 -7.26766,-12.95675 -13.0524,-5.82639 -11.51035,1.1751 -8.56136,6.99688 -3.18381,9.36316 3.98391,11.12057 11.02851,5.93197 8.77593,-2.88465 6.38977,-9.22997 1.50685,-11.3416 -1.42993,-7.42993 -2.40796,-5.71621 -8.55349,-4.60389 -10.11608,-0.26136 -8.40507,5.4826 -6.54215,14.51995 2.80157,15.7146 11.27905,12.02774 14.78717,2.95824 13.93993,-3.7246 11.33463,-12.43916 3.71074,-18.07445 -5.34703,-21.5 -13.57519,-13.78722 -18.77064,-5.21351 -16.26327,2.24124 -15.20804,11.60013 -9.47808,21.60697 0.55098,23.73491 10.31425,20.29757 21.78882,13.28205 20.84719,2.13939 21.04302,-5.63959 18.11192,-15.69511 8.54107,-21.58639 -1.83453,-26.3158 -13.24254,-23.317 -18.97642,-11.96811 -20.47127,-3.67804 -17.98727,3.06569 -19.21299,13.68515 -9.98397,22.96981 -0.2116,22.17173 8.51693,23.57963 19.71471,17.07726 23.171,5.02594 22.07175,-3.64409 20.54689,-14.95991 9.83316,-20.24875 0.26996,-24.43623 -9.95791,-22.63189 -16.61687,-11.60794 -19.46503,-4.48904 -18.94058,2.85259 -16.3481,13.41252 -7.28525,21.06705 3.11737,20.3535 12.18146,16.55228 18.19563,5.23261 17.88776,-1.92719 15.27834,-13.91412 4.41203,-17.79168 -3.72087,-18.87544 -14.15682,-10.95345 -13.11562,-1.91487 -11.48305,4.55269 -7.49077,9.18725 -1.68252,10.15733 6.74507,11.97934 8.72234,2.35227 8.42094,-3.90938 4.37638,-8.82828 1.41044,-9.84002 -1.13533,-6.80871 -1.48004,-4.00972 -6.70214,-2.68543 -7.48972,2.15554 -4.23668,5.74445 -0.95794,11.73278 6.00963,9.78778 10.3311,2.63858 15.34301,-15.59161 3.20709,-15.06496 -3.55806,-12.56312 -6.33681,-8.06843 -13.81245,-4.42412 -13.68459,3.10518 -10.61632,10.41085 -6.1096,19.98837 4.69561,20.63117 13.79887,16.33893 18.85251,5.59351 19.77705,-3.09712 25.15093,-27.29686 -0.30304,-23.73225 -9.37532,-22.99339 -16.05893,-13.86771 -20.89,-5.29247 -18.37846,2.52769 -17.20852,9.58601 -12.27861,18.86894 -4.8643,25.76852 5.60029,25.76498 14.43377,21.11984 25.0657,10.3062 22.82387,0.36998 24.68756,-11.9955 15.8515,-20.01134 5.68325,-24.20202 -4.66598,-26.54594 -15.55724,-21.17267 -19.5391,-9.51169 -21.7339,-2.45841 -18.43597,4.81699 -17.37964,15.19111 -9.09555,23.61496 0.78847,24.26186 8.80655,20.49612 18.39458,15.86812 23.01039,4.20775 21.23924,-4.77554 19.09537,-16.06377 7.71953,-23.21415 -2.81876,-24.62634 -14.03622,-18.17239 -18.14677,-7.74053 -17.53474,0.0275 -14.06557,7.97574 -10.64431,15.56382 -1.29268,20.48112 9.44869,18.20829 16.50958,10.20543 17.82128,-0.55231 13.38753,-5.98537 8.79658,-14.09144 0.79753,-15.96881 -7.75273,-14.4146 -15.02134,-7.36507"
                     id="logo"
                     style="fill:#008000;stroke:#000000" />
                </g>
              </g>
            </g>
          </g>
        </g>
      </g>
    </g>
  </g>
  <g
     id="text"
     fill="#000000"
     style="font-family:none;mix-blend-mode:normal;fill-rule:nonzero;stroke:none;stroke-width:1;stroke-linecap:butt;stroke-linejoin:miter;stroke-miterlimit:10;stroke-dasharray:none;stroke-dashoffset:0"
     transform="translate(-59.311519,-40.599469)">
    <g
       id="g22">
      <path
         d="m 164.59187,88 v 22.70716 h -2.09041 V 88 Z m 11.37339,6.64769 v 0 c 1.12281,0 2.13664,0.20475 3.04149,0.61424 0.90485,0.40289 1.68091,0.96429 2.32817,1.68421 0.64727,0.71992 1.14592,1.57854 1.49598,2.57585 0.35665,0.99732 0.53499,2.10031 0.53499,3.30898 v 0 c 0,1.20867 -0.17833,2.31167 -0.53499,3.30898 -0.35005,1.00392 -0.84871,1.86255 -1.49598,2.57585 -0.64727,0.71992 -1.42333,1.28462 -2.32817,1.69412 -0.90485,0.40289 -1.91868,0.60433 -3.04149,0.60433 v 0 c -1.12941,0 -2.14655,-0.20144 -3.05139,-0.60433 -0.90485,-0.40949 -1.68421,-0.9742 -2.33809,-1.69412 -0.65387,-0.71332 -1.15913,-1.57193 -1.51579,-2.57585 -0.35665,-0.99732 -0.53499,-2.10031 -0.53499,-3.30898 v 0 c 0,-1.20867 0.17833,-2.31167 0.53499,-3.30898 0.35665,-0.99732 0.86192,-1.85594 1.51579,-2.57585 0.65387,-0.71992 1.43323,-1.28133 2.33809,-1.68421 0.90485,-0.40949 1.92199,-0.61424 3.05139,-0.61424 z m 0,14.46442 v 0 c 0.78597,0 1.50919,-0.15191 2.16967,-0.45573 0.65387,-0.30381 1.20867,-0.72653 1.6644,-1.26812 0.46233,-0.54159 0.81899,-1.20207 1.06997,-1.98142 0.24438,-0.77937 0.36657,-1.63798 0.36657,-2.57585 v 0 c 0,-0.93787 -0.12219,-1.7965 -0.36657,-2.57585 -0.25099,-0.77937 -0.60764,-1.43983 -1.06997,-1.98142 -0.45573,-0.54159 -1.01053,-0.96429 -1.6644,-1.26812 -0.66048,-0.29721 -1.3837,-0.44582 -2.16967,-0.44582 v 0 c -0.81239,0 -1.54221,0.1486 -2.18948,0.44582 -0.64727,0.30381 -1.20537,0.72653 -1.6743,1.26812 -0.46894,0.54159 -0.8256,1.20207 -1.06997,1.98142 -0.25099,0.77937 -0.37647,1.63798 -0.37647,2.57585 v 0 c 0,0.93787 0.12549,1.7965 0.37647,2.57585 0.24438,0.77937 0.60103,1.43983 1.06997,1.98142 0.46894,0.54159 1.02704,0.96429 1.6743,1.26812 0.64727,0.30381 1.37709,0.45573 2.18948,0.45573 z M 193.0749,94.64769 v 0 c 1.80971,0 3.26275,0.48545 4.35914,1.45635 1.09639,0.96429 1.64458,2.33148 1.64458,4.10156 v 0 10.50157 h -1.97152 v -2.15976 c -0.58122,0.79258 -1.33746,1.40351 -2.26873,1.83282 -0.92466,0.4227 -1.95831,0.63406 -3.10094,0.63406 v 0 c -0.75295,0 -1.46296,-0.10898 -2.13004,-0.32694 -0.66708,-0.21796 -1.23839,-0.53169 -1.71393,-0.94118 -0.48215,-0.40289 -0.86192,-0.90155 -1.13932,-1.49598 -0.284,-0.59443 -0.42601,-1.25491 -0.42601,-1.98142 v 0 c 0,-1.47946 0.53829,-2.6419 1.61487,-3.48732 1.06997,-0.8388 2.57256,-1.2582 4.50774,-1.2582 v 0 h 4.55729 v -1.31765 c 0,-1.2483 -0.36657,-2.17957 -1.0997,-2.79381 -0.73974,-0.61424 -1.69412,-0.92137 -2.86316,-0.92137 v 0 c -1.12281,0 -2.02436,0.24107 -2.70465,0.72322 -0.67369,0.47554 -1.13602,1.06667 -1.38699,1.77337 v 0 h -2.03097 c 0.14531,-0.60103 0.38638,-1.16574 0.72322,-1.69412 0.33023,-0.53499 0.75624,-1.00062 1.27802,-1.39691 0.52178,-0.39628 1.12941,-0.7034 1.82292,-0.92137 0.70011,-0.21796 1.47617,-0.32694 2.32817,-0.32694 z m -1.0898,14.52386 v 0 c 0.70671,0 1.36719,-0.10237 1.98142,-0.30712 0.61424,-0.21136 1.14592,-0.50527 1.59505,-0.88174 0.44912,-0.36986 0.80248,-0.8256 1.06007,-1.36719 0.25759,-0.54159 0.38638,-1.14592 0.38638,-1.813 v 0 -1.46625 h -4.45821 c -1.27472,0 -2.28194,0.24768 -3.02168,0.74303 -0.73974,0.50196 -1.1096,1.23178 -1.1096,2.18948 v 0 c 0,0.93787 0.34015,1.6545 1.02044,2.14985 0.67369,0.50196 1.5224,0.75295 2.54614,0.75295 z M 215.31642,88 h 2.09041 v 22.70716 h -2.00124 v -2.68484 c -0.45573,0.83219 -1.14262,1.53891 -2.06068,2.12013 -0.91145,0.58122 -2.04417,0.87182 -3.39815,0.87182 v 0 c -0.91806,0 -1.8031,-0.17173 -2.65511,-0.51517 -0.85861,-0.34344 -1.61487,-0.85861 -2.26873,-1.54551 -0.65387,-0.6869 -1.17895,-1.53891 -1.57524,-2.55604 -0.39628,-1.02374 -0.59443,-2.21259 -0.59443,-3.56657 v 0 c 0,-1.35398 0.19815,-2.53953 0.59443,-3.55666 0.39628,-1.02374 0.92137,-1.87905 1.57524,-2.56595 0.65387,-0.6869 1.41341,-1.20207 2.27864,-1.54551 0.86522,-0.34344 1.76677,-0.51517 2.70465,-0.51517 v 0 c 1.31435,0 2.42395,0.26749 3.3288,0.80248 0.90485,0.52838 1.56533,1.16574 1.98142,1.91208 v 0 z m -5.15172,21.11211 v 0 c 0.76616,0 1.47286,-0.14531 2.12013,-0.43591 0.64727,-0.2906 1.19876,-0.7034 1.6545,-1.23839 0.45573,-0.52838 0.81569,-1.16904 1.07988,-1.92199 0.25759,-0.74634 0.38638,-1.58845 0.38638,-2.52632 v 0 -0.31702 c 0,-0.91145 -0.12549,-1.74366 -0.37647,-2.49659 -0.24438,-0.74634 -0.59773,-1.3903 -1.06007,-1.93189 -0.45573,-0.54159 -1.00723,-0.95769 -1.6545,-1.2483 -0.64727,-0.2906 -1.36388,-0.43591 -2.14985,-0.43591 v 0 c -0.77276,0 -1.47617,0.1486 -2.11022,0.44582 -0.63406,0.30381 -1.18225,0.72653 -1.64458,1.26812 -0.45573,0.54159 -0.80908,1.20207 -1.06007,1.98142 -0.25099,0.77937 -0.37647,1.63798 -0.37647,2.57585 v 0 c 0,0.93787 0.12549,1.7965 0.37647,2.57585 0.25099,0.77937 0.60433,1.43983 1.06007,1.98142 0.46233,0.54159 1.01053,0.96429 1.64458,1.26812 0.63406,0.30381 1.33746,0.45573 2.11022,0.45573 z m 18.76412,-19.23966 h -0.90155 c -0.87182,0 -1.54882,0.22457 -2.03097,0.67369 -0.48215,0.44252 -0.72322,1.20537 -0.72322,2.28855 v 0 2.13004 h 3.65574 v 1.87245 h -3.65574 v 13.87 h -2.09041 v -13.87 h -2.80372 v -1.87245 h 2.80372 v -2.18948 c 0,-1.58514 0.4128,-2.7773 1.23839,-3.57648 0.81899,-0.79918 1.97813,-1.19876 3.4774,-1.19876 v 0 h 1.03034 z M 234.33812,88 v 22.70716 h -2.09041 V 88 Z m 15.61365,6.96472 h 2.06068 v 15.74244 h -2.00124 v -2.15976 c -0.45573,0.66708 -1.1195,1.24499 -1.99134,1.73375 -0.87843,0.48875 -1.91208,0.73313 -3.10094,0.73313 v 0 c -0.74634,0 -1.47286,-0.11889 -2.17957,-0.35665 -0.70671,-0.23778 -1.33746,-0.60764 -1.89226,-1.1096 -0.5548,-0.50196 -0.99071,-1.13602 -1.30775,-1.90218 -0.32363,-0.77276 -0.48545,-1.69082 -0.48545,-2.75418 v 0 -9.92695 h 2.09041 v 9.61983 c 0,1.57854 0.39959,2.72776 1.19876,3.44769 0.80579,0.71992 1.77998,1.07988 2.9226,1.07988 v 0 c 0.5614,0 1.12281,-0.0892 1.68421,-0.26749 0.5614,-0.17833 1.06337,-0.45903 1.50588,-0.84211 0.43591,-0.38307 0.79258,-0.87843 1.06997,-1.48607 0.284,-0.60103 0.42601,-1.32756 0.42601,-2.17957 v 0 z m 19.54679,15.74244 h -2.46688 l -4.67617,-6.40992 -4.59692,6.40992 h -2.43716 l 5.74614,-7.87617 -5.67679,-7.86627 h 2.46688 l 4.587,6.45945 4.55729,-6.45945 h 2.43716 l -5.6867,7.89599 z"
         id="path20" />
    </g>
  </g>
</svg>
